<svg width="34" height="32" viewBox="0 0 34 32" fill="none" xmlns="http://www.w3.org/2000/svg">
<path d="M1 1H3.28228C4.12208 1 4.85485 1.56449 5.07221 2.37419L5.70288 4.7391M5.70288 4.7391C14.8759 4.48218 24.0401 5.50132 32.9322 7.76724C31.5753 11.8059 29.9632 15.7293 28.1173 19.5145H9.645M5.70288 4.7391L9.645 19.5145M9.645 19.5145C8.33483 19.5145 7.07832 20.0346 6.15189 20.9605C5.22546 21.8864 4.705 23.1422 4.705 24.4517H30.64M7.175 29.3889C7.175 29.7162 7.04489 30.0302 6.81328 30.2616C6.58167 30.4931 6.26754 30.6232 5.94 30.6232C5.61246 30.6232 5.29833 30.4931 5.06672 30.2616C4.83512 30.0302 4.705 29.7162 4.705 29.3889C4.705 29.0615 4.83512 28.7475 5.06672 28.5161C5.29833 28.2846 5.61246 28.1546 5.94 28.1546C6.26754 28.1546 6.58167 28.2846 6.81328 28.5161C7.04489 28.7475 7.175 29.0615 7.175 29.3889ZM28.17 29.3889C28.17 29.7162 28.0399 30.0302 27.8083 30.2616C27.5767 30.4931 27.2625 30.6232 26.935 30.6232C26.6075 30.6232 26.2933 30.4931 26.0617 30.2616C25.8301 30.0302 25.7 29.7162 25.7 29.3889C25.7 29.0615 25.8301 28.7475 26.0617 28.5161C26.2933 28.2846 26.6075 28.1546 26.935 28.1546C27.2625 28.1546 27.5767 28.2846 27.8083 28.5161C28.0399 28.7475 28.17 29.0615 28.17 29.3889Z" stroke="white" stroke-width="2" stroke-linecap="round" stroke-linejoin="round"/>
</svg>
