<svg width="25" height="24" viewBox="0 0 25 24" fill="none" xmlns="http://www.w3.org/2000/svg">
<path d="M15.625 10.5C15.625 11.2956 15.2958 12.0587 14.7097 12.6213C14.1237 13.1839 13.3288 13.5 12.5 13.5C11.6712 13.5 10.8763 13.1839 10.2903 12.6213C9.70424 12.0587 9.375 11.2956 9.375 10.5C9.375 9.70435 9.70424 8.94129 10.2903 8.37868C10.8763 7.81607 11.6712 7.5 12.5 7.5C13.3288 7.5 14.1237 7.81607 14.7097 8.37868C15.2958 8.94129 15.625 9.70435 15.625 10.5Z" stroke="#FE8C00" stroke-width="1.5" stroke-linecap="round" stroke-linejoin="round"/>
<path d="M20.3125 10.5C20.3125 17.642 12.5 21.75 12.5 21.75C12.5 21.75 4.6875 17.642 4.6875 10.5C4.6875 8.51088 5.5106 6.60322 6.97573 5.1967C8.44086 3.79018 10.428 3 12.5 3C14.572 3 16.5591 3.79018 18.0243 5.1967C19.4894 6.60322 20.3125 8.51088 20.3125 10.5Z" stroke="#FE8C00" stroke-width="2" stroke-linecap="round" stroke-linejoin="round"/>
</svg>
