<svg width="28" height="28" viewBox="0 0 28 28" fill="none" xmlns="http://www.w3.org/2000/svg">
<path d="M2 2H3.71535C4.34653 2 4.89728 2.45733 5.06064 3.11333L5.53465 5.02933M5.53465 5.02933C12.429 4.82118 19.3168 5.64687 26 7.48267C24.9802 10.7547 23.7686 13.9333 22.3812 17H8.49753M5.53465 5.02933L8.49753 17M8.49753 17C7.51281 17 6.56843 17.4214 5.87213 18.1716C5.17583 18.9217 4.78465 19.9391 4.78465 21H24.2772M6.64109 25C6.64109 25.2652 6.5433 25.5196 6.36922 25.7071C6.19515 25.8946 5.95905 26 5.71287 26C5.46669 26 5.2306 25.8946 5.05652 25.7071C4.88245 25.5196 4.78465 25.2652 4.78465 25C4.78465 24.7348 4.88245 24.4804 5.05652 24.2929C5.2306 24.1054 5.46669 24 5.71287 24C5.95905 24 6.19515 24.1054 6.36922 24.2929C6.5433 24.4804 6.64109 24.7348 6.64109 25ZM22.4208 25C22.4208 25.2652 22.323 25.5196 22.1489 25.7071C21.9749 25.8946 21.7388 26 21.4926 26C21.2464 26 21.0103 25.8946 20.8362 25.7071C20.6622 25.5196 20.5644 25.2652 20.5644 25C20.5644 24.7348 20.6622 24.4804 20.8362 24.2929C21.0103 24.1054 21.2464 24 21.4926 24C21.7388 24 21.9749 24.1054 22.1489 24.2929C22.323 24.4804 22.4208 24.7348 22.4208 25Z" stroke="#FE8C00" stroke-width="3" stroke-linecap="round" stroke-linejoin="round"/>
</svg>
