<svg width="22" height="22" viewBox="0 0 22 22" fill="none" xmlns="http://www.w3.org/2000/svg">
<path d="M20 20L14.803 14.803L20 20ZM14.803 14.803C16.2096 13.3965 16.9998 11.4887 16.9998 9.49955C16.9998 7.51035 16.2096 5.60262 14.803 4.19605C13.3965 2.78947 11.4887 1.99927 9.49955 1.99927C7.51035 1.99927 5.60262 2.78947 4.19605 4.19605C2.78947 5.60262 1.99927 7.51035 1.99927 9.49955C1.99927 11.4887 2.78947 13.3965 4.19605 14.803C5.60262 16.2096 7.51035 16.9998 9.49955 16.9998C11.4887 16.9998 13.3965 16.2096 14.803 14.803Z" fill="white"/>
<path d="M20 20L14.803 14.803M14.803 14.803C16.2096 13.3965 16.9998 11.4887 16.9998 9.49955C16.9998 7.51035 16.2096 5.60262 14.803 4.19605C13.3965 2.78947 11.4887 1.99927 9.49955 1.99927C7.51035 1.99927 5.60262 2.78947 4.19605 4.19605C2.78947 5.60262 1.99927 7.51035 1.99927 9.49955C1.99927 11.4887 2.78947 13.3965 4.19605 14.803C5.60262 16.2096 7.51035 16.9998 9.49955 16.9998C11.4887 16.9998 13.3965 16.2096 14.803 14.803Z" stroke="#FE8C00" stroke-width="3" stroke-linecap="round" stroke-linejoin="round"/>
</svg>
