<svg width="26" height="26" viewBox="0 0 26 26" fill="none" xmlns="http://www.w3.org/2000/svg">
<path d="M1 1H2.71535C3.34653 1 3.89728 1.45733 4.06064 2.11333L4.53465 4.02933M4.53465 4.02933C11.429 3.82118 18.3167 4.64687 25 6.48267C23.9802 9.75467 22.7686 12.9333 21.3812 16H7.49752M4.53465 4.02933L7.49752 16M7.49752 16C6.51281 16 5.56843 16.4214 4.87213 17.1716C4.17583 17.9217 3.78465 18.9391 3.78465 20H23.2772M5.64109 24C5.64109 24.2652 5.54329 24.5196 5.36922 24.7071C5.19515 24.8946 4.95905 25 4.71287 25C4.46669 25 4.2306 24.8946 4.05652 24.7071C3.88245 24.5196 3.78465 24.2652 3.78465 24C3.78465 23.7348 3.88245 23.4804 4.05652 23.2929C4.2306 23.1054 4.46669 23 4.71287 23C4.95905 23 5.19515 23.1054 5.36922 23.2929C5.54329 23.4804 5.64109 23.7348 5.64109 24ZM21.4208 24C21.4208 24.2652 21.323 24.5196 21.1489 24.7071C20.9748 24.8946 20.7388 25 20.4926 25C20.2464 25 20.0103 24.8946 19.8362 24.7071C19.6621 24.5196 19.5644 24.2652 19.5644 24C19.5644 23.7348 19.6621 23.4804 19.8362 23.2929C20.0103 23.1054 20.2464 23 20.4926 23C20.7388 23 20.9748 23.1054 21.1489 23.2929C21.323 23.4804 21.4208 23.7348 21.4208 24Z" stroke="#FE8C00" stroke-width="2" stroke-linecap="round" stroke-linejoin="round"/>
</svg>
